<svg id="Layer_1" data-name="Layer 1" xmlns="http://www.w3.org/2000/svg" viewBox="0 0 1073.19 100.1"><path d="M977.39,549.29c.16-1.51.35-2.48.35-3.45q0-28.73-.13-57.46c0-3,.1-3.24,2.88-3.31,9.14-.25,7.6.15,7.61,6.91q0,43,0,85.94c0,1.17,0,2.33,0,3.5-.15,3-.51,3.41-3.5,3.58-1.33.07-2.67,0-4,0A6.52,6.52,0,0,1,975,582.4c-4.7-5.59-9.52-11.08-14.28-16.63-5-5.81-9.89-11.64-14.87-17.44-7.57-8.81-15.18-17.59-22.74-26.41-4.54-5.29-9-10.63-13.52-15.95a14.29,14.29,0,0,0-1.92-2.28,2.79,2.79,0,0,0-2.23-.53,2.44,2.44,0,0,0-1.07,1.91q.23,37,.56,73.91c0,6,0,6-6.07,6-.83,0-1.66,0-2.49,0-1.55-.07-2.53-.72-2.47-2.43,0-.67.07-1.34.07-2q0-45.72,0-91.43c0-3.82.05-4,3.81-4,6.49-.08,13,0,19.48-.11a7.11,7.11,0,0,1,6,2.86c4.9,5.85,9.9,11.63,14.89,17.41,5.64,6.54,11.38,13,17,19.57S966.36,538.3,972,545C973.36,546.65,974.48,548.55,977.39,549.29Z" transform="translate(-404.79 -484.96)"/><path d="M1135.43,493.21a20.92,20.92,0,0,1,.48-2.32c2.11-5.83,2.11-5.83,8.06-5.83q38.49,0,77,0c1.6,0,3.21.21,4.88.34.1,1.13.2,1.78.2,2.42q0,46.23,0,92.46c0,.66,0,1.33,0,2,.2,2-.91,2.66-2.69,2.64-1.17,0-2.33,0-3.5,0h-72.46c-1.81,0-3.93.48-5-1.38s-2.59-4.16-2.14-5.78c.63-2.26,3.49-.9,5.31-.91,17.16-.1,34.32,0,51.47,0,.84,0,1.67,0,2.5-.08a2.4,2.4,0,0,0,2.52-2.52c0-1.33,0-2.66,0-4,0-8.16,0-16.32,0-24.48,0-3.79-.12-4-3.87-4-12.33-.06-24.66,0-37,0-.84,0-1.67,0-2.5,0-3.25-.13-3.63-.52-3.79-3.82-.19-3.86.09-4.2,4.13-4.2,12,0,24,0,36,0,1,0,2,.06,3,0,3.51-.2,4-.65,4-4.19q.06-15.74,0-31.48c0-4.51-.25-4.8-4.82-4.81q-28.49,0-57,0Z" transform="translate(-404.79 -484.96)"/><path d="M727.12,536.33h-10.3l-29.48,0c-1,0-2,0-3,0-3.69.18-4.3.77-4.31,4.5,0,9,0,18,0,27,0,1.83-.13,3.66-.08,5.49.06,2.6.68,3.29,3.14,3.56a31.23,31.23,0,0,0,3.49,0q28-.06,56-.1c1.42,0,2.84.17,4.21.26,0,.84.12,1.22,0,1.48-3.78,7.72-2.58,6.44-9.87,6.45L662,585c-.5,0-1,0-1.5,0-3.64-.1-3.78-.29-3.78-3.94q0-46.46,0-92.9c0-2.62.23-3,2.57-3.14,1.49-.08,3,0,4.49,0h70c6.45,0,7.14.58,8.64,7.85a25.71,25.71,0,0,1-2.86.3q-26.47,0-53-.05c-.66,0-1.33,0-2,0-4,.22-4.53.77-4.53,4.78,0,8.33.06,16.65,0,25,0,5.31,0,5.34,5.12,5.34q18,0,36,0C728.45,528.28,728.45,528.28,727.12,536.33Z" transform="translate(-404.79 -484.96)"/><path d="M457.12,485.05h44a8.8,8.8,0,0,1,2,0c1.25.3,2.95.38,3.56,1.21a17.61,17.61,0,0,1,2.26,5.4c.1.34-.89,1.31-1.52,1.49a11.28,11.28,0,0,1-3,.07l-31.48,0c-.83,0-1.66,0-2.49.07a2.31,2.31,0,0,0-2.44,2.54c0,.67.05,1.33.05,2q0,41.22.07,82.44c0,.83,0,1.66,0,2.49A2,2,0,0,1,466,585q-9.24,0-18.48-.06a2.25,2.25,0,0,1-2.44-2.53c0-1.49,0-3,0-4.49l0-79.44c0-.67.08-1.34,0-2-.19-2.48-.82-3.12-3.41-3.3-1.16-.08-2.33.06-3.49.07l-30,.08a6.85,6.85,0,0,1-2-.09,2.37,2.37,0,0,1-1.41-1.1c-.66-1.78,1.91-6.39,3.78-6.78a17.46,17.46,0,0,1,3.47-.22h45Z" transform="translate(-404.79 -484.96)"/><path d="M1478,577c-.55,1.87-.89,3.13-1.3,4.38-.9,2.75-2.82,3.67-5.69,3.66q-45.24-.13-90.48-.12c-4.38,0-6.64-2-7.33-6.34a2.24,2.24,0,0,1,1.18-1.71,6,6,0,0,1,2.45-.14l32,.13a27.19,27.19,0,0,0,3-.13,2.15,2.15,0,0,0,2.08-2.35c0-.83,0-1.66,0-2.49l-.06-82.49c0-.67,0-1.33,0-2,0-1.37.6-2.29,2-2.29,6.33,0,12.66,0,19,0a2.11,2.11,0,0,1,2.13,2.3c0,.84,0,1.67,0,2.5q0,38.74,0,77.49a38.4,38.4,0,0,1-.28,6c-.35,2.27.84,3.07,2.68,3.34a22.55,22.55,0,0,0,3.49.08l32-.11C1475.65,576.75,1476.45,576.88,1478,577Z" transform="translate(-404.79 -484.96)"/></svg>